<?xml version="1.0" encoding="UTF-8" standalone="no"?>
<svg
   xmlns:dc="http://purl.org/dc/elements/1.1/"
   xmlns:cc="http://creativecommons.org/ns#"
   xmlns:rdf="http://www.w3.org/1999/02/22-rdf-syntax-ns#"
   xmlns:svg="http://www.w3.org/2000/svg"
   xmlns="http://www.w3.org/2000/svg"
   xmlns:xlink="http://www.w3.org/1999/xlink"
   xmlns:sodipodi="http://sodipodi.sourceforge.net/DTD/sodipodi-0.dtd"
   xmlns:inkscape="http://www.inkscape.org/namespaces/inkscape"
   version="1.1"
   width="384"
   height="48"
   id="svg3035"
   inkscape:version="0.48.3.1 r9886"
   sodipodi:docname="speeds.svg"
   inkscape:export-xdpi="90"
   inkscape:export-ydpi="90">
  <sodipodi:namedview
     pagecolor="#ffffff"
     bordercolor="#666666"
     borderopacity="1"
     objecttolerance="10"
     gridtolerance="10000"
     guidetolerance="10"
     inkscape:pageopacity="0"
     inkscape:pageshadow="2"
     inkscape:window-width="1366"
     inkscape:window-height="710"
     id="namedview3087"
     showgrid="true"
     inkscape:zoom="5.6568542"
     inkscape:cx="253.22901"
     inkscape:cy="14.042361"
     inkscape:window-x="0"
     inkscape:window-y="26"
     inkscape:window-maximized="1"
     inkscape:current-layer="svg3035">
    <inkscape:grid
       type="xygrid"
       id="grid3089"
       empspacing="3"
       visible="true"
       enabled="true"
       snapvisiblegridlinesonly="true"
       spacingx="1px"
       spacingy="1px" />
  </sodipodi:namedview>
  <metadata
     id="metadata3037">
    <rdf:RDF>
      <cc:Work
         rdf:about="">
        <dc:format>image/svg+xml</dc:format>
        <dc:type
           rdf:resource="http://purl.org/dc/dcmitype/StillImage" />
        <dc:title>Bos Wars patch editor terrain speeds</dc:title>
        <dc:rights>GNU GPL v2 or later</dc:rights>
        <dc:source>graphics made by Jimmy Salmon in 2008</dc:source>
      </cc:Work>
    </rdf:RDF>
  </metadata>
  <defs
     id="defs3039">
    <symbol
       viewBox="0 0 48 48"
       id="road">
      <path
         d="M 21,0 0,21 0,48 27,48 48,27 48,0 z"
         style="fill:#000000;fill-opacity:1;stroke:none"
         id="path4662" />
      <path
         d="M 24,0 0,24 0,48 24,48 48,24 48,0 z"
         style="fill:#808080;fill-opacity:1;stroke:none"
         id="path3042" />
      <path
         d="M 3,45 13,35 M 35,13 45,3"
         style="fill:none;stroke:#cccccc;stroke-width:3px;stroke-opacity:1"
         id="path3044" />
      <rect
         width="18"
         height="30"
         x="15"
         y="9"
         style="fill:#0000ff;fill-opacity:0;stroke:none"
         id="rect3046" />
    </symbol>
  </defs>
  <g
     id="speed0">
    <use
       width="48"
       height="48"
       xlink:href="#road"
       id="use3049" />
    <ellipse
       cx="24"
       cy="24"
       rx="6"
       ry="12"
       style="fill:none;stroke:#000000;stroke-width:7;stroke-miterlimit:4;stroke-dasharray:none"
       id="ellipse4669" />
    <ellipse
       cx="24"
       cy="24"
       rx="6"
       ry="12"
       id="ellipse3971"
       style="fill:none;stroke:#adffad;stroke-width:6;stroke-miterlimit:4;stroke-dasharray:none" />
  </g>
  <g
     transform="translate(48,0)"
     id="speed1">
    <use
       width="48"
       height="48"
       xlink:href="#road"
       id="use3053" />
    <path
       d="M 24,39 24,9 m 0,1 c -1,4 -4,5 -6,6"
       style="fill:none;stroke:#000000;stroke-width:7;stroke-linejoin:miter;stroke-miterlimit:4;stroke-dasharray:none"
       inkscape:connector-curvature="0"
       sodipodi:nodetypes="cccc"
       id="path4674" />
    <path
       d="M 24,39 24,9 m 0,1 c -1,4 -4,5 -6,6"
       style="fill:none;stroke:#c6ffad;stroke-width:6;stroke-linejoin:miter;stroke-miterlimit:4;stroke-dasharray:none"
       id="path3055"
       inkscape:connector-curvature="0"
       sodipodi:nodetypes="cccc" />
  </g>
  <g
     transform="translate(96,0)"
     id="speed2">
    <use
       width="48"
       height="48"
       xlink:href="#road"
       id="use3058" />
    <path
       d="M 33,36 18,36 C 18,30 30,25 30,18 30,11 20,9 17,17"
       style="fill:none;stroke:#000000;stroke-width:7;stroke-linejoin:miter;stroke-miterlimit:4;stroke-dasharray:none"
       inkscape:connector-curvature="0"
       sodipodi:nodetypes="cczc"
       id="path4679" />
    <path
       d="M 33,36 18,36 C 18,30 30,25 30,18 30,11 20,9 17,17"
       style="fill:none;stroke:#e1ffad;stroke-width:6;stroke-linejoin:miter;stroke-miterlimit:4;stroke-dasharray:none"
       id="path3060"
       inkscape:connector-curvature="0"
       sodipodi:nodetypes="cczc" />
  </g>
  <g
     transform="translate(144,0)"
     id="speed3">
    <use
       width="48"
       height="48"
       xlink:href="#road"
       id="use3063" />
    <path
       d="m 17,33 c 3,5 13,4 13,-2 0,-6 -5,-7 -8,-7 3,0 8,-1 8,-7 0,-6 -10,-7 -13,-2"
       style="fill:none;stroke:#000000;stroke-width:7;stroke-linejoin:bevel;stroke-miterlimit:4;stroke-dasharray:none"
       inkscape:connector-curvature="0"
       sodipodi:nodetypes="czczc"
       id="path4684" />
    <path
       d="m 17,33 c 3,5 13,4 13,-2 0,-6 -5,-7 -8,-7 3,0 8,-1 8,-7 0,-6 -10,-7 -13,-2"
       style="fill:none;stroke:#fbffad;stroke-width:6;stroke-linejoin:bevel;stroke-miterlimit:4;stroke-dasharray:none"
       id="path3065"
       inkscape:connector-curvature="0"
       sodipodi:nodetypes="czczc" />
  </g>
  <g
     transform="translate(192,0)"
     id="speed4">
    <use
       width="48"
       height="48"
       xlink:href="#road"
       id="use3068" />
    <path
       d="M 27,39 27,9 m -1,2 C 24,13 16,26 16,30 l 17,0"
       style="fill:none;stroke:#000000;stroke-width:7;stroke-linejoin:miter;stroke-miterlimit:4;stroke-dasharray:none"
       inkscape:connector-curvature="0"
       sodipodi:nodetypes="ccccc"
       id="path4689" />
    <path
       d="M 27,39 27,9 m -1,2 C 24,13 16,26 16,30 l 17,0"
       style="fill:none;stroke:#ffefad;stroke-width:6;stroke-linejoin:miter;stroke-miterlimit:4;stroke-dasharray:none"
       id="path3070"
       inkscape:connector-curvature="0"
       sodipodi:nodetypes="ccccc" />
  </g>
  <g
     transform="translate(240,0)"
     id="speed5">
    <use
       width="48"
       height="48"
       xlink:href="#road"
       id="use3073" />
    <path
       d="m 17,32 c 3,6 13,6 13,-4 0,-9 -9,-7 -12,-7 l 0,-9 15,0"
       style="fill:none;stroke:#000000;stroke-width:7;stroke-linejoin:miter;stroke-miterlimit:4;stroke-dasharray:none"
       inkscape:connector-curvature="0"
       sodipodi:nodetypes="csccc"
       id="path4694" />
    <path
       d="m 17,32 c 3,6 13,6 13,-4 0,-9 -9,-7 -12,-7 l 0,-9 15,0"
       style="fill:none;stroke:#ffd9ad;stroke-width:6;stroke-linejoin:miter;stroke-miterlimit:4;stroke-dasharray:none"
       id="path3075"
       inkscape:connector-curvature="0"
       sodipodi:nodetypes="csccc" />
  </g>
  <g
     transform="translate(288,0)"
     id="speed6">
    <use
       width="48"
       height="48"
       xlink:href="#road"
       id="use3078" />
    <path
       d="m 19,26 c 0,0 2,-2 5,-2 3,0 6,3 6,6 0,3 -2,6 -6,6 -4,0 -6,-3 -6,-6 0,-12 5,-16 10,-19"
       style="fill:none;stroke:#000000;stroke-width:7;stroke-linejoin:bevel;stroke-miterlimit:4;stroke-dasharray:none"
       inkscape:connector-curvature="0"
       sodipodi:nodetypes="cszssc"
       id="path4699" />
    <path
       d="m 19,26 c 0,0 2,-2 5,-2 3,0 6,3 6,6 0,3 -2,6 -6,6 -4,0 -6,-3 -6,-6 0,-12 5,-16 10,-19"
       style="fill:none;stroke:#ffc2ad;stroke-width:6;stroke-linejoin:bevel;stroke-miterlimit:4;stroke-dasharray:none"
       id="path3080"
       inkscape:connector-curvature="0"
       sodipodi:nodetypes="cszssc" />
  </g>
  <g
     transform="translate(336,0)"
     id="speed7">
    <use
       width="48"
       height="48"
       xlink:href="#road"
       id="use3083" />
    <path
       d="M 24,39 C 24,27 29,12 29,12 L 15,12"
       style="fill:none;stroke:#000000;stroke-width:7;stroke-linejoin:miter;stroke-miterlimit:4;stroke-dasharray:none"
       inkscape:connector-curvature="0"
       sodipodi:nodetypes="ccc"
       id="path4704" />
    <path
       d="M 24,39 C 24,27 29,12 29,12 L 15,12"
       style="fill:none;stroke:#ffadad;stroke-width:6;stroke-linejoin:miter;stroke-miterlimit:4;stroke-dasharray:none"
       id="path3085"
       inkscape:connector-curvature="0"
       sodipodi:nodetypes="ccc" />
  </g>
</svg>
